<svg id="Layer_1" data-name="Layer 1" xmlns="http://www.w3.org/2000/svg" viewBox="0 0 40.1 39.9"><defs><style>.cls-1{fill:#020200;}.cls-2{fill:#fcf9f5;}.cls-3{fill:#fcc11a;stroke:#261b03;stroke-miterlimit:10;stroke-width:0.15px;}</style></defs><title>Untitled-2</title><rect class="cls-1" width="40.1" height="39.9" rx="3.57"/><path class="cls-2" d="M13.73,6.26V14.8a2.11,2.11,0,0,0,2,2.22h9.36a2.1,2.1,0,0,0,2-2.22V6.26A2.12,2.12,0,0,1,29,4h0a2.06,2.06,0,0,1,1.94,1.8l4.65,26.6a2.16,2.16,0,0,1-1.93,2.65H29a2.11,2.11,0,0,1-2-2.22V22.75a2.11,2.11,0,0,0-2-2.23H15.7a2.12,2.12,0,0,0-2,2.23V32.86a2.1,2.1,0,0,1-2,2.22H6.44a2.17,2.17,0,0,1-1.92-2.71L9.84,5.77A2,2,0,0,1,11.76,4h0A2.11,2.11,0,0,1,13.73,6.26Z" transform="translate(0 -0.1)"/><path class="cls-3" d="M14.28,13.3h0c-1.48,1.27-3.61.08-3.61-2V8.8a2.41,2.41,0,0,1,2.25-2.54H28A2.41,2.41,0,0,1,30.21,8.8v2.49c0,2.1-2.12,3.3-3.61,2l-.12-.1c-1.61-1.37-3.87.13-3.6,2.38L24.7,30.5c.36,2.94-1.67,5.57-4.3,5.57h-.33c-2.58,0-4.55-2.59-4.17-5.46l2-14.9C18.18,13.45,15.9,11.92,14.28,13.3Z" transform="translate(0 -0.1)"/></svg>